<svg width="124" height="32" viewBox="0 0 124 32" fill="none" xmlns="http://www.w3.org/2000/svg">
<path fill-rule="evenodd" clip-rule="evenodd" d="M10.5517 16.1881C10.5517 9.35665 16.142 3.81921 23.0372 3.81921C29.1394 3.81921 34.2196 8.15626 35.3074 13.889C32.1807 15.372 28.1745 16.8802 23.705 18.1745C19.1654 19.4892 14.9086 20.3631 11.4381 20.7743C10.8662 19.3561 10.5517 17.8085 10.5517 16.1881ZM24.5249 20.9516C28.6209 19.7653 32.3825 18.3922 35.4966 16.9934C35.0778 23.4495 29.6593 28.557 23.0372 28.557C18.9008 28.557 15.234 26.5642 12.962 23.4948C16.3841 23.016 20.3614 22.1573 24.5249 20.9516ZM23.0372 31.4503C17.3463 31.4503 12.3764 28.3939 9.7084 23.8479C9.62172 23.8543 9.53561 23.8603 9.45007 23.8659C7.43648 23.9994 5.65958 23.9585 4.29098 23.6875C3.60846 23.5524 2.94816 23.3452 2.39519 23.0172C1.83328 22.6838 1.29089 22.1666 1.06588 21.4041C0.800152 20.5037 1.09067 19.6644 1.47866 19.0317C1.86838 18.3962 2.45445 17.7977 3.12644 17.2422C4.26685 16.2994 5.8504 15.3217 7.7402 14.3567C8.65353 6.79131 15.1537 0.925903 23.0372 0.925903C27.812 0.925903 32.0794 3.07758 34.9053 6.45544C37.1039 6.24408 39.0399 6.21695 40.5576 6.41089C41.4206 6.52117 42.2355 6.71314 42.9061 7.04076C43.5743 7.36715 44.2711 7.91864 44.5357 8.81549C44.7607 9.57794 44.585 10.303 44.2929 10.8836C44.0054 11.455 43.5618 11.9819 43.0602 12.4599C42.0545 13.4184 40.5797 14.4011 38.8106 15.363C38.686 15.4308 38.5596 15.4986 38.4314 15.5665C38.4397 15.7727 38.4439 15.9799 38.4439 16.1881C38.4439 24.6169 31.5464 31.4503 23.0372 31.4503ZM7.70186 17.6674C7.81467 18.8293 8.05897 19.953 8.41986 21.024C6.91312 21.085 5.71535 21.019 4.86355 20.8504C4.41597 20.7618 4.12631 20.6566 3.95519 20.5677C3.96143 20.5569 3.9682 20.5456 3.97553 20.5336C4.1312 20.2798 4.44922 19.9174 4.99843 19.4634C5.66574 18.9117 6.57488 18.3053 7.70186 17.6674ZM3.8089 20.4736L3.81136 20.4761C3.80961 20.4744 3.80885 20.4736 3.8089 20.4736ZM3.88487 20.7177C3.88418 20.723 3.88345 20.7257 3.88325 20.7258C3.88306 20.7258 3.8834 20.7232 3.88487 20.7177ZM37.9911 12.5003C37.7026 11.3485 37.282 10.2483 36.7462 9.2164C38.1244 9.14124 39.2829 9.16529 40.1838 9.28042C40.8877 9.37036 41.348 9.50571 41.6139 9.63561C41.6254 9.64123 41.6362 9.64667 41.6464 9.65193C41.5506 9.81819 41.3637 10.0615 41.0346 10.3751C40.3861 10.9931 39.365 11.7165 37.9911 12.5003ZM41.793 9.74673C41.7929 9.74679 41.7908 9.74489 41.7874 9.74088C41.7915 9.74467 41.7932 9.74667 41.793 9.74673ZM115.197 6.62268V24.5932H119.186V6.62268H115.197ZM93.4768 24.5932L101.815 6.62268H105.033L113.371 24.5932H109.356L107.658 20.6932H99.1903L97.5174 24.5932H93.4768ZM103.385 10.8285L100.529 17.6089H106.345L103.437 10.8285H103.385ZM77.2235 23.9049L74.8042 29.1814H78.7677L86.4115 12.0776H82.551L79.2824 20.0305L76.1168 12.0776H72.0247L77.2235 23.9049ZM65.9602 24.8736C65.068 24.8736 64.2616 24.6781 63.541 24.2873C62.8375 23.8964 62.3142 23.3781 61.9711 22.7324V24.5932H58.162V6.62268H62.0483V13.7599C62.4257 13.1651 62.9576 12.6978 63.6439 12.3579C64.3474 12.0011 65.1195 11.8227 65.9602 11.8227C67.0583 11.8227 68.0192 12.086 68.8428 12.6128C69.6835 13.1396 70.3355 13.8873 70.7987 14.856C71.262 15.8246 71.4936 16.9801 71.4936 18.3226C71.4936 19.6651 71.262 20.8291 70.7987 21.8148C70.3355 22.7834 69.6835 23.5396 68.8428 24.0834C68.0192 24.6102 67.0583 24.8736 65.9602 24.8736ZM64.8021 21.9932C65.6257 21.9932 66.2948 21.6958 66.8096 21.101C67.3243 20.5063 67.5817 19.5801 67.5817 18.3226C67.5817 17.0821 67.3243 16.173 66.8096 15.5952C66.2948 15.0004 65.6257 14.703 64.8021 14.703C63.9614 14.703 63.2836 15.0004 62.7689 15.5952C62.2542 16.173 61.9968 17.0821 61.9968 18.3226C61.9968 19.5801 62.2542 20.5063 62.7689 21.101C63.2836 21.6958 63.9614 21.9932 64.8021 21.9932ZM47.2983 12.0776V24.5932H51.2618V18.1187C51.2618 16.3684 52.2226 15.3998 54.1443 15.2128L56.3319 14.9834L56.1003 11.7462L54.9679 11.8227C52.9947 11.9756 51.7079 12.7828 51.1074 14.2442V12.0776H47.2983Z" fill="#2D31A6"/>
</svg>
